<svg width="1200" height="700" viewBox="0 0 1200 700" fill="none" xmlns="http://www.w3.org/2000/svg">
<defs>
<linearGradient id="g" x1="0" y1="0" x2="1" y2="1"><stop stop-color="#101B30"/><stop offset="1" stop-color="#182A43"/></linearGradient>
<clipPath id="phone"><rect x="82" y="250" width="250" height="350" rx="22"/></clipPath>
</defs>
<rect width="1200" height="700" rx="24" fill="#0B0D12"/>
<rect x="24" y="24" width="1152" height="652" rx="20" fill="url(#g)" stroke="#29344A"/>
<text x="64" y="82" fill="#7E8CA6" font-family="monospace" font-size="14" letter-spacing="3">01 / ANDROID MEDIA PLATFORM</text>
<text x="64" y="142" fill="#F7F8FB" font-family="Georgia, serif" font-size="54" font-weight="700">ZENKAI</text>
<text x="64" y="178" fill="#AEB8C9" font-family="Arial" font-size="18">Watch. Read. Save. Connect.</text>
<rect x="64" y="218" width="1072" height="1" fill="#334056"/>

<rect x="82" y="250" width="250" height="350" rx="22" fill="#070A10" stroke="#34445F" stroke-width="2"/>
<image href="https://img2link.com/images/2026/09/28/bb593afe889488619ab18199eb079c79.jpg" x="82" y="250" width="250" height="350" preserveAspectRatio="xMidYMid slice" clip-path="url(#phone)"/>
<rect x="82" y="250" width="250" height="350" rx="22" fill="none" stroke="#34445F" stroke-width="2"/>
<rect x="181" y="258" width="52" height="5" rx="3" fill="#111722" opacity=".9"/>

<rect x="362" y="250" width="774" height="350" rx="18" fill="#0C111B" stroke="#26334A"/>
<text x="390" y="286" fill="#737F95" font-family="monospace" font-size="12" letter-spacing="2">ZENKAI / FEATURES</text>
<text x="390" y="330" fill="#F0F3FA" font-family="Arial" font-size="19" font-weight="700">MULTI-SERVER PLAYBACK</text>
<text x="390" y="364" fill="#F0F3FA" font-family="Arial" font-size="19">PICTURE-IN-PICTURE</text>
<text x="390" y="398" fill="#F0F3FA" font-family="Arial" font-size="19">DOWNLOAD MANAGER</text>
<text x="390" y="432" fill="#F0F3FA" font-family="Arial" font-size="19">MANGA + NOVEL READING</text>
<text x="390" y="466" fill="#F0F3FA" font-family="Arial" font-size="19">DISCORD RICH PRESENCE</text>
<text x="390" y="500" fill="#F0F3FA" font-family="Arial" font-size="19">COMMUNITY + LIBRARY</text>
<line x1="390" y1="542" x2="1108" y2="542" stroke="#334056"/>
<text x="390" y="575" fill="#7F8BA1" font-family="monospace" font-size="13">KOTLIN · ANDROID · MEDIA · APIs</text>
</svg>